#!OML:ASF F:\VICON\USERDATA\INSTALL\rory3\rory3.ASF
:FULLY-SPECIFIED
:DEGREES
881
root -2.60655 14.4774 -33.713 -322.267 42.5745 19.2019
lowerback -20.7449 -12.2283 -3.15311
upperback -14.8099 -15.0399 -0.973361
thorax -4.55664 -7.30671 -1.82753
lowerneck 2.42569 6.32463 2.16544
upperneck 19.1195 7.71256 6.26673
head 5.20237 4.35702 1.8834
rclavicle 1.49287e-013 8.82604e-014
rhumerus -34.1676 -50.0237 21.1518
rradius 15.4662
rwrist 43.3002
rhand 13.5567 -5.24113
rfingers 7.12502
rthumb 38.4914 -30.9049
lclavicle 1.49287e-013 8.82604e-014
lhumerus 67.5695 1.07538 45.238
lradius 29.0485
lwrist -26.4541
lhand 3.82018 25.625
lfingers 7.12502
lthumb 29.244 53.3465
rfemur -98.2892 -35.9278 405.23
rtibia 70.2449
rfoot 144.693 146.248
rtoes 33.5211
lfemur -15.2783 -9.61309 -29.7581
ltibia 33.9506
lfoot -45.1058 20.6472
ltoes -21.9717
882
root -2.60748 14.4863 -33.7121 -322.466 42.3829 18.9794
lowerback -20.4112 -12.0237 -2.67582
upperback -15.3312 -14.8873 -1.2812
thorax -5.5306 -7.27421 -2.20039
lowerneck 3.72438 6.41809 2.78023
upperneck 18.483 7.92953 6.12891
head 4.82208 4.47054 1.68296
rclavicle 6.06293e-014 4.49253e-014
rhumerus -34.2291 -49.3019 21.2808
rradius 15.4545
rwrist 43.879
rhand 13.9176 -5.51046
rfingers 7.12502
rthumb 38.8319 -31.0784
lclavicle 6.06293e-014 4.49253e-014
lhumerus 67.1619 0.0763072 45.2889
lradius 29.2792
lwrist -26.1301
lhand 3.76666 25.7541
lfingers 7.12502
lthumb 29.1929 53.4845
rfemur -98.0754 -35.7531 405.203
rtibia 70.3712
rfoot 143.237 147.663
rtoes 35.934
lfemur -15.2404 -9.50052 -29.7295
ltibia 33.9618
lfoot -45.3203 20.3919
ltoes -21.1849
883
root -2.60639 14.4751 -33.7132 -322.442 42.2665 19.0224
lowerback -20.7312 -12.0929 -2.93474
upperback -15.1073 -14.9043 -1.21358
thorax -5.03188 -7.26262 -2.10634
lowerneck 3.25003 6.36673 2.67125
upperneck 18.1406 7.88411 5.86981
head 4.80004 4.42114 1.62723
rclavicle 1.9302e-013 1.18476e-013
rhumerus -34.2673 -49.8323 21.5122
rradius 15.4235
rwrist 44.0759
rhand 14.2992 -5.82872
rfingers 7.12502
rthumb 39.1916 -31.2936
lclavicle 1.9302e-013 1.18476e-013
lhumerus 67.6091 0.269018 45.6908
lradius 29.3552
lwrist -26.1109
lhand 3.78575 25.6675
lfingers 7.12502
lthumb 29.2111 53.3948
rfemur -98.0239 -35.6556 405.105
rtibia 70.157
rfoot 144.097 146.764
rtoes 34.4754
lfemur -15.2237 -9.59512 -29.8372
ltibia 33.9541
lfoot -45.4585 20.4394
ltoes -20.9983
884
root -2.61034 14.4676 -33.7091 -322.476 41.9624 19.0655
lowerback -20.9218 -12.1977 -3.31186
upperback -14.7828 -14.9625 -1.04389
thorax -4.42233 -7.26205 -1.84875
lowerneck 1.53452 6.29739 2.31963
upperneck 18.4489 7.76209 5.52985
head 5.17944 4.33749 1.64804
rclavicle 4.02539e-014 2.8625e-014
rhumerus -34.7586 -51.7689 22.4068
rradius 15.3583
rwrist 45.6248
rhand 14.9226 -5.78755
rfingers 7.12502
rthumb 39.7788 -31.08
lclavicle 4.02539e-014 2.8625e-014
lhumerus 68.1602 0.875491 46.1574
lradius 29.3107
lwrist -26.245
lhand 3.64466 25.717
lfingers 7.12502
lthumb 29.0764 53.4676
rfemur -97.8921 -35.441 404.781
rtibia 70.1325
rfoot 144.899 146.027
rtoes 33.0533
lfemur -15.1078 -9.60755 -30.0588
ltibia 33.9139
lfoot -45.625 20.6462
ltoes -21.176
885
root -2.61494 14.4714 -33.6993 -322.557 41.6768 19.0455
lowerback -20.9228 -12.235 -3.57736
upperback -14.5188 -14.9703 -0.9217
thorax -4.0161 -7.24715 -1.63791
lowerneck -0.0652036 6.37045 1.56532
upperneck 18.515 7.79335 5.79875
head 5.42026 4.33237 1.91368
rclavicle -9.54166e-015 2.10712e-014
rhumerus -35.3033 -53.3375 23.2842
rradius 15.3448
rwrist 46.8886
rhand 15.8582 -5.58358
rfingers 7.12502
rthumb 40.6588 -30.6074
lclavicle -9.54166e-015 2.10712e-014
lhumerus 68.874 1.49427 47.3111
lradius 29.0655
lwrist -27.027
lhand 3.58648 25.6365
lfingers 7.12502
lthumb 29.0208 53.3967
rfemur -97.7062 -35.2292 404.517
rtibia 70.0986
rfoot 145.195 145.852
rtoes 32.654
lfemur -15.015 -9.52333 -30.2035
ltibia 33.9398
lfoot -45.7186 20.8194
ltoes -21.3601
886
root -2.61057 14.4799 -33.7219 -322.246 41.3753 18.8398
lowerback -21.3101 -12.1088 -3.33249
upperback -14.8466 -14.8132 -0.88673
thorax -4.25473 -7.17906 -1.72222
lowerneck 0.313363 6.20015 1.34353
upperneck 18.2345 7.62299 5.59696
head 5.27053 4.21395 1.85659
rclavicle -9.0447e-015 7.95139e-015
rhumerus -33.7645 -51.216 21.6873
rradius 15.4757
rwrist 44.9952
rhand 16.8576 -5.63932
rfingers 7.12502
rthumb 41.5972 -30.3629
lclavicle -9.0447e-015 7.95139e-015
lhumerus 68.9953 1.38656 48.5888
lradius 28.8074
lwrist -27.8226
lhand 3.70208 25.4417
lfingers 7.12502
lthumb 29.1312 53.1828
rfemur -98.2329 -34.7606 404.801
rtibia 70.2077
rfoot 143.985 147.281
rtoes 35.443
lfemur -15.6177 -9.68589 -30.2781
ltibia 33.976
lfoot -45.8399 21.0047
ltoes -20.6528
887
root -2.60997 14.4643 -33.7258 -322.244 41.156 18.7526
lowerback -21.2501 -12.061 -3.2514
upperback -14.749 -14.7768 -0.83914
thorax -4.17373 -7.16863 -1.70765
lowerneck -1.30005 6.04103 0.891793
upperneck 18.565 7.38746 5.54269
head 5.63377 4.08131 1.9718
rclavicle 8.67695e-014 -1.03368e-014
rhumerus -32.7331 -50.1606 20.4639
rradius 15.5646
rwrist 43.487
rhand 16.8586 -6.28609
rfingers 7.12502
rthumb 41.5982 -31.0093
lclavicle 8.67695e-014 -1.03368e-014
lhumerus 69.5183 1.69582 49.0702
lradius 28.6668
lwrist -27.842
lhand 3.58037 25.5228
lfingers 7.12502
lthumb 29.015 53.284
rfemur -98.2992 -34.5209 404.813
rtibia 69.9367
rfoot 145.557 145.782
rtoes 32.8674
lfemur -15.6791 -9.6428 -30.3518
ltibia 33.9722
lfoot -46.1034 20.6307
ltoes -19.544
888
root -2.60733 14.4612 -33.7329 -322.276 40.9392 18.6572
lowerback -21.2393 -11.995 -3.24654
upperback -15.2674 -14.6904 -0.911126
thorax -4.8021 -7.11732 -1.69461
lowerneck 0.570169 5.77742 0.601266
upperneck 17.5459 7.13845 5.36567
head 5.00048 3.90167 1.85556
rclavicle -7.7526e-014 -3.89618e-014
rhumerus -31.4545 -47.833 19.2032
rradius 15.7094
rwrist 42.2393
rhand 15.7177 -7.71985
rfingers 7.12502
rthumb 40.5268 -32.7848
lclavicle -7.7526e-014 -3.89618e-014
lhumerus 68.981 0.971942 49.1658
lradius 28.4815
lwrist -27.7434
lhand 3.37369 25.5362
lfingers 7.12502
lthumb 28.8176 53.3312
rfemur -98.3613 -34.3639 404.868
rtibia 69.8627
rfoot 145.976 145.521
rtoes 31.5082
lfemur -15.7132 -9.58999 -30.438
ltibia 33.9427
lfoot -46.2519 20.5674
ltoes -19.0234
889
root -2.60306 14.4787 -33.7345 -322.391 40.8862 18.5383
lowerback -21.002 -11.9621 -3.05939
upperback -15.248 -14.706 -0.837541
thorax -4.91441 -7.13825 -1.66827
lowerneck -0.564151 5.79387 0.264482
upperneck 17.9541 7.13196 5.47052
head 5.29963 3.89746 1.99289
rclavicle -2.87244e-014 4.49253e-014
rhumerus -31.791 -49.6504 20.0257
rradius 15.6583
rwrist 43.8482
rhand 17.442 -6.62802
rfingers 7.12502
rthumb 42.1451 -31.1693
lclavicle -2.87244e-014 4.49253e-014
lhumerus 69.4051 1.38519 50.1339
lradius 28.1501
lwrist -28.618
lhand 3.47599 25.191
lfingers 7.12502
lthumb 28.9153 52.9693
rfemur -98.4108 -34.4025 405.023
rtibia 69.8647
rfoot 146.121 145.679
rtoes 30.871
lfemur -15.6305 -9.47846 -30.4194
ltibia 33.8349
lfoot -46.0879 20.8488
ltoes -19.2406
890
root -2.60087 14.4918 -33.7309 -322.536 40.8351 18.4383
lowerback -20.9136 -11.9425 -3.04732
upperback -15.4814 -14.689 -0.850777
thorax -5.236 -7.12552 -1.63558
lowerneck 0.241503 5.71688 0.284109
upperneck 17.7051 7.07297 5.29132
head 5.09617 3.84997 1.8969
rclavicle 6.1822e-014 2.14687e-014
rhumerus -32.0209 -50.5672 20.7727
rradius 15.6821
rwrist 45.2206
rhand 18.3869 -6.00023
rfingers 7.12502
rthumb 43.0296 -30.2357
lclavicle 6.1822e-014 2.14687e-014
lhumerus 69.2574 1.18624 51.0695
lradius 27.9863
lwrist -29.3362
lhand 3.73458 25.0522
lfingers 7.12502
lthumb 29.1623 52.7879
rfemur -98.3599 -34.4371 405.064
rtibia 70.0027
rfoot 145.599 146.309
rtoes 31.9863
lfemur -15.4338 -9.40801 -30.4023
ltibia 33.6617
lfoot -46.0433 20.9548
ltoes -19.1566
